<svg width="752" height="585" viewBox="0 0 752 585" fill="none" xmlns="http://www.w3.org/2000/svg">
<path d="M220.875 520.75C221.911 520.75 222.75 519.239 222.75 517.375C222.75 515.511 221.911 514 220.875 514C219.839 514 219 515.511 219 517.375C219 519.239 219.839 520.75 220.875 520.75Z" fill="#A76A48"/>
<path d="M376 585C583.659 585 752 579.181 752 572.004C752 564.826 583.659 559.008 376 559.008C168.341 559.008 0 564.826 0 572.004C0 579.181 168.341 585 376 585Z" fill="#D0CDE1"/>
<path d="M292.195 564.75C291.051 564.748 289.928 564.445 288.939 563.871C287.951 563.296 287.131 562.471 286.563 561.479C285.995 560.486 285.699 559.361 285.705 558.218C285.711 557.074 286.019 555.952 286.597 554.966V554.965L295.694 539.434L306.912 546.004L297.815 561.536C297.24 562.516 296.419 563.328 295.433 563.892C294.447 564.455 293.331 564.751 292.195 564.75Z" fill="#A76A48"/>
<path d="M327.894 529.252C332.312 529.252 335.894 525.67 335.894 521.252C335.894 516.834 332.312 513.252 327.894 513.252C323.476 513.252 319.894 516.834 319.894 521.252C319.894 525.67 323.476 529.252 327.894 529.252Z" fill="#D1875E"/>
<path d="M256.997 564.75C255.853 564.748 254.73 564.445 253.741 563.871C252.752 563.296 251.933 562.471 251.365 561.479C250.797 560.486 250.501 559.361 250.507 558.217C250.513 557.074 250.821 555.952 251.399 554.965L260.496 539.434L271.714 546.004L262.617 561.536C262.042 562.516 261.221 563.328 260.235 563.891C259.249 564.455 258.133 564.751 256.997 564.75Z" fill="#A76A48"/>
<path d="M309.374 554.368H269.065C263.58 554.362 258.32 552.18 254.441 548.301C250.562 544.422 248.38 539.163 248.374 533.677V527.554C248.376 525.649 249.134 523.822 250.481 522.475C251.828 521.128 253.655 520.37 255.56 520.368H309.374C313.883 520.368 318.207 522.159 321.395 525.347C324.583 528.535 326.374 532.859 326.374 537.368C326.374 541.877 324.583 546.201 321.395 549.389C318.207 552.577 313.883 554.368 309.374 554.368Z" fill="#D1875E"/>
<path d="M307.464 570.039C305.741 570.037 304.089 569.352 302.87 568.133C301.651 566.914 300.966 565.262 300.964 563.539V545.539H313.964V563.539C313.962 565.262 313.277 566.914 312.058 568.133C310.84 569.352 309.187 570.037 307.464 570.039Z" fill="#D1875F"/>
<path d="M269.742 570.039C268.018 570.037 266.366 569.352 265.148 568.133C263.929 566.914 263.244 565.262 263.242 563.539V545.539H276.242V563.539C276.24 565.262 275.554 566.914 274.336 568.133C273.117 569.352 271.465 570.037 269.742 570.039Z" fill="#D1875F"/>
<path d="M260.742 496H244.742V475C244.742 472.878 245.585 470.843 247.085 469.343C248.585 467.843 250.62 467 252.742 467C254.863 467 256.898 467.843 258.399 469.343C259.899 470.843 260.742 472.878 260.742 475V496Z" fill="#A76A48"/>
<path d="M259.473 525.752H233.01C231.481 525.75 230.015 525.142 228.933 524.06C227.852 522.979 227.243 521.513 227.242 519.983V506.123C227.247 501.252 229.184 496.583 232.628 493.139C236.072 489.695 240.742 487.757 245.612 487.752H249.834C253.919 487.757 257.835 489.381 260.724 492.27C263.612 495.158 265.237 499.075 265.242 503.16V519.983C265.24 521.513 264.632 522.979 263.55 524.06C262.469 525.142 261.002 525.75 259.473 525.752Z" fill="#D1875F"/>
<path d="M260.742 496H249.742V472.5C249.742 471.041 250.321 469.642 251.353 468.611C252.384 467.579 253.783 467 255.242 467C256.7 467 258.099 467.579 259.131 468.611C260.162 469.642 260.742 471.041 260.742 472.5V496Z" fill="#D49471"/>
<path d="M258 525.579H229C226.878 525.579 224.843 524.736 223.343 523.236C221.843 521.736 221 519.701 221 517.579C221 515.457 221.843 513.423 223.343 511.922C224.843 510.422 226.878 509.579 229 509.579H258V525.579Z" fill="#D0855B"/>
<path d="M583.168 543.408C583.203 538.758 582.242 534.154 580.349 529.908C576.377 532.759 573.104 536.474 570.775 540.774C568.446 536.474 565.173 532.759 561.201 529.908C559.308 534.154 558.346 538.758 558.382 543.408C554.375 541.168 549.941 539.801 545.369 539.396C545.369 539.396 546.226 549.898 553.242 556.729C559.48 562.803 568.485 563.93 570.406 564.105L570.459 564.142L570.474 564.112C570.669 564.129 570.775 564.134 570.775 564.134C570.775 564.134 570.758 563.936 570.713 563.578C570.732 563.531 570.753 563.482 570.775 563.431C570.796 563.482 570.817 563.531 570.837 563.578C570.791 563.936 570.775 564.134 570.775 564.134C570.775 564.134 570.881 564.129 571.076 564.112L571.09 564.142L571.144 564.105C573.064 563.93 582.07 562.803 588.308 556.729C595.323 549.898 596.18 539.396 596.18 539.396C591.609 539.801 587.174 541.168 583.168 543.408Z" fill="#6C63FF"/>
<path d="M591.482 47.5174L591.522 47.5105L585.601 12.8848L552.859 23.2894L557.758 54.2594C556.071 53.1924 554.059 52.7601 552.083 53.0399C550.107 53.3197 548.294 54.2932 546.969 55.7867C545.644 57.2801 544.893 59.1961 544.851 61.1923C544.808 63.1885 545.476 65.1348 546.736 66.6836C547.996 68.2324 549.765 69.2826 551.728 69.6467C553.69 70.0109 555.718 69.6651 557.45 68.6712C559.181 67.6774 560.502 66.1002 561.178 64.2214C561.854 62.3426 561.84 60.2848 561.138 58.4154L561.169 58.4107L555.911 25.1743L583.446 16.4242L588.127 43.7959C586.399 42.7738 584.363 42.4047 582.387 42.7553C580.41 43.1059 578.625 44.1531 577.354 45.7071C576.083 47.2612 575.411 49.2192 575.46 51.2263C575.508 53.2334 576.273 55.1568 577.617 56.6479C578.962 58.139 580.795 59.0991 582.786 59.3542C584.777 59.6093 586.793 59.1425 588.47 58.0385C590.146 56.9344 591.372 55.2662 591.924 53.3361C592.477 51.4059 592.32 49.3417 591.482 47.5174Z" fill="#6C63FF"/>
<path d="M748.232 60.7674L748.272 60.7605L742.351 26.1348L709.61 36.5394L714.508 67.5094C712.821 66.4424 710.81 66.0101 708.833 66.2899C706.857 66.5696 705.044 67.5432 703.72 69.0366C702.395 70.5301 701.644 72.446 701.601 74.4423C701.558 76.4385 702.227 78.3848 703.486 79.9336C704.746 81.4824 706.515 82.5327 708.478 82.8968C710.441 83.2609 712.469 82.9151 714.2 81.9213C715.931 80.9274 717.253 79.3502 717.929 77.4714C718.604 75.5927 718.59 73.5348 717.889 71.6654L717.919 71.6607L712.662 38.4243L740.197 29.6742L744.878 57.0459C743.15 56.0239 741.114 55.6547 739.137 56.0053C737.161 56.3559 735.376 57.4031 734.105 58.9572C732.834 60.5112 732.162 62.4692 732.21 64.4763C732.259 66.4834 733.024 68.4068 734.368 69.8979C735.712 71.3889 737.546 72.349 739.537 72.6041C741.528 72.8592 743.544 72.3925 745.22 71.2884C746.897 70.1844 748.122 68.5162 748.675 66.586C749.227 64.6559 749.07 62.5917 748.232 60.7674Z" fill="#6C63FF"/>
<path d="M18 260.546C18 193.38 72.4483 34 139.614 34C206.779 34 261.227 193.38 261.227 260.546C261.218 292.794 248.401 323.717 225.595 346.517C202.789 369.316 171.862 382.125 139.614 382.125C107.366 382.125 76.4382 369.316 53.6322 346.517C30.8262 323.717 18.0092 292.794 18 260.546Z" fill="#26CAD3"/>
<path d="M140 570.284C139.735 570.284 139.48 570.179 139.293 569.991C139.105 569.804 139 569.549 139 569.284V150C139 149.735 139.105 149.48 139.293 149.293C139.48 149.105 139.735 149 140 149C140.265 149 140.52 149.105 140.707 149.293C140.895 149.48 141 149.735 141 150V569.284C141 569.549 140.895 569.804 140.707 569.991C140.52 570.179 140.265 570.284 140 570.284Z" fill="#3F3D56"/>
<path d="M139.614 217.08C139.482 217.08 139.352 217.054 139.231 217.004C139.11 216.953 138.999 216.88 138.907 216.787L90.7721 168.652C90.6782 168.56 90.6035 168.449 90.5524 168.328C90.5013 168.206 90.4748 168.076 90.4744 167.944C90.4739 167.812 90.4996 167.681 90.5499 167.559C90.6001 167.437 90.674 167.327 90.7673 167.233C90.8606 167.14 90.9714 167.066 91.0934 167.016C91.2153 166.966 91.346 166.94 91.4779 166.94C91.6098 166.941 91.7403 166.967 91.8619 167.019C91.9835 167.07 92.0938 167.144 92.1864 167.238L140.321 215.373C140.461 215.512 140.556 215.691 140.595 215.885C140.633 216.079 140.613 216.28 140.538 216.462C140.462 216.645 140.334 216.801 140.169 216.911C140.005 217.021 139.812 217.08 139.614 217.08V217.08Z" fill="#3F3D56"/>
<path d="M139.614 300.41C139.416 300.41 139.223 300.351 139.058 300.241C138.894 300.131 138.766 299.975 138.69 299.792C138.614 299.61 138.594 299.409 138.633 299.215C138.672 299.021 138.767 298.843 138.907 298.703L219.517 218.092C219.609 217.999 219.719 217.924 219.841 217.873C219.963 217.822 220.093 217.795 220.225 217.795C220.357 217.794 220.487 217.82 220.609 217.87C220.731 217.921 220.842 217.995 220.935 218.088C221.028 218.181 221.102 218.292 221.153 218.414C221.203 218.536 221.229 218.666 221.228 218.798C221.228 218.93 221.201 219.06 221.15 219.182C221.099 219.304 221.025 219.414 220.931 219.506L140.321 300.117C140.228 300.21 140.118 300.284 139.996 300.334C139.875 300.384 139.745 300.41 139.614 300.41Z" fill="#3F3D56"/>
<path d="M636.196 85.6132L636.219 85.6095L632.001 58.9424L629.918 59.272L633.575 82.3907C632.266 81.5633 630.707 81.2282 629.174 81.4452C627.642 81.6621 626.237 82.417 625.209 83.575C624.182 84.733 623.6 86.2186 623.567 87.7664C623.534 89.3142 624.052 90.8233 625.029 92.0242C626.005 93.225 627.377 94.0393 628.899 94.3216C630.421 94.604 631.993 94.3358 633.336 93.5652C634.678 92.7946 635.703 91.5717 636.227 90.1149C636.751 88.6582 636.74 87.0626 636.196 85.6132Z" fill="#6C63FF"/>
<path d="M671.983 52.5055C671.986 51.0601 671.509 49.6547 670.626 48.5105C669.743 47.3664 668.505 46.5485 667.106 46.1856C665.708 45.8228 664.228 45.9356 662.9 46.5064C661.573 47.0771 660.473 48.0733 659.774 49.3382C659.074 50.603 658.815 52.0646 659.038 53.4927C659.26 54.9208 659.951 56.2344 661.002 57.2266C662.053 58.2187 663.404 58.8331 664.842 58.9729C666.28 59.1128 667.724 58.7701 668.946 57.9989L665.289 81.1175L667.372 81.4472L671.59 54.78L671.567 54.7764C671.841 54.0505 671.982 53.2813 671.983 52.5055Z" fill="#6C63FF"/>
<path d="M400.938 470.03L413.281 488.55L431.795 474.146L419.453 458.712L400.938 470.03Z" fill="#FE6077"/>
<path d="M415.665 478.613C415.665 478.613 397.988 479.435 402.971 488.782C407.954 498.129 411.841 550.87 426.063 547.814C440.285 544.758 453.179 528.593 453.021 517.466C452.863 506.338 451.083 501.512 451.083 501.512C451.083 501.512 447.269 494.146 449.808 492.112C452.347 490.078 453.306 477.222 447.259 473.313C441.212 469.403 423.735 464.229 423.735 464.229C423.735 464.229 421.965 480.236 415.665 478.613Z" fill="#2F2E41"/>
<path d="M424.595 513.244L420.48 535.879L442.081 537.936V520.446L424.595 513.244Z" fill="#FE6077"/>
<path d="M380.366 206.64C380.366 206.64 369.052 244.708 365.966 267.343C365.966 267.343 304.251 350.682 315.565 386.692C326.88 422.702 359.794 494.723 359.794 494.723C359.794 494.723 415.338 472.088 426.653 459.742L385.509 401.096C385.509 401.096 391.681 393.894 382.423 389.779C373.166 385.663 381.395 380.519 381.395 380.519C381.395 380.519 398.881 321.873 416.367 315.7L477.053 303.353C477.053 303.353 472.939 215.899 458.539 200.466C458.539 200.466 386.538 201.495 380.366 206.64Z" fill="#FF5000"/>
<path d="M429.738 526.618C429.738 526.618 419.452 512.214 414.309 521.474C409.166 530.734 366.995 562.629 377.28 572.917C387.566 583.206 408.138 585.264 417.395 579.09C426.652 572.917 429.738 568.802 429.738 568.802C429.738 568.802 433.852 561.6 436.938 562.629C440.024 563.657 451.338 557.484 451.338 550.282C451.338 543.08 446.196 525.589 446.196 525.589C446.196 525.589 431.795 532.791 429.738 526.618Z" fill="#2F2E41"/>
<path d="M414.31 308.498L428.71 432.991C428.71 432.991 420.481 467.973 418.424 494.723C416.367 521.474 418.424 520.445 418.424 520.445C418.424 520.445 464.71 538.965 472.939 526.618C481.168 514.272 477.053 303.353 477.053 303.353L452.367 280.718L414.31 308.498Z" fill="#FF5000"/>
<path d="M389.199 30.5727C399.877 5.37055 427.059 0.61089 427.059 0.61089C427.059 0.61089 453.231 -6.37323 475.089 26.8883C495.461 57.8908 521.733 86.9374 488.415 99.312L479.614 80.8235L478.558 102.101C473.714 103.11 468.817 103.853 463.891 104.327C426.935 108.083 392.098 114.327 391.453 100.967C390.595 83.2081 378.925 54.8222 389.199 30.5727Z" fill="#2F2E41"/>
<path d="M432.824 80.0886C449.298 80.0886 462.653 66.73 462.653 50.2513C462.653 33.7727 449.298 20.4141 432.824 20.4141C416.35 20.4141 402.995 33.7727 402.995 50.2513C402.995 66.73 416.35 80.0886 432.824 80.0886Z" fill="#FE6077"/>
<path d="M424.081 69.2853C424.081 69.2853 423.567 99.637 420.481 106.839C417.395 114.041 475.51 101.18 475.51 101.18C475.51 101.18 454.939 86.7761 451.853 67.2275L424.081 69.2853Z" fill="#FE6077"/>
<path d="M428.709 94.4925L423.092 90.3599L383.452 92.4348L375.223 182.975C375.223 182.975 351.566 210.755 380.366 210.755C409.166 210.755 435.91 197.38 456.481 206.639C477.053 215.899 494.539 108.897 494.539 108.897L463.787 90.3599C463.787 90.3599 450.31 106.839 428.709 94.4925Z" fill="#FFB600"/>
<path d="M394.766 167.542L452.367 179.889V193.264L394.766 195.322C394.766 195.322 388.595 171.658 394.766 167.542Z" fill="#FE6077"/>
<path d="M394.766 97.5794L383.452 92.4351C383.452 92.4351 370.08 95.5217 369.052 106.839C368.023 118.157 348.48 191.207 363.909 194.293C379.338 197.38 399.909 197.38 399.909 197.38C399.909 197.38 386.538 178.86 402.995 168.572L390.652 162.398C390.652 162.398 378.309 134.619 386.538 120.215C394.766 105.81 394.766 97.5794 394.766 97.5794Z" fill="#320A46"/>
<path d="M395.237 21.4169L422.477 7.14355L460.097 12.9825L467.879 47.3681L448.505 46.6227L443.092 33.9902V46.4143L434.153 46.0704L428.963 25.9581L425.721 47.3681L393.939 46.7193L395.237 21.4169Z" fill="#2F2E41"/>
<path d="M462.824 56.9448C465.854 56.9448 468.31 52.6455 468.31 47.342C468.31 42.0386 465.854 37.7393 462.824 37.7393C459.795 37.7393 457.339 42.0386 457.339 47.342C457.339 52.6455 459.795 56.9448 462.824 56.9448Z" fill="#FE6077"/>
<path d="M463.352 54.1396C465.419 54.1396 467.096 52.463 467.096 50.3948C467.096 48.3265 465.419 46.6499 463.352 46.6499C461.284 46.6499 459.608 48.3265 459.608 50.3948C459.608 52.463 461.284 54.1396 463.352 54.1396Z" fill="white"/>
<path d="M464.959 51.6574C465.295 51.6574 465.568 50.8398 465.568 49.8312C465.568 48.8225 465.295 48.0049 464.959 48.0049C464.623 48.0049 464.351 48.8225 464.351 49.8312C464.351 50.8398 464.623 51.6574 464.959 51.6574Z" fill="#2F2E41"/>
<path d="M464.862 61.2648C464.608 61.2648 464.365 61.1639 464.185 60.9842C464.005 60.8045 463.905 60.5609 463.905 60.3068L462.947 52.6421H465.82V60.3068C465.82 60.4326 465.796 60.5572 465.747 60.6734C465.699 60.7897 465.629 60.8953 465.54 60.9843C465.451 61.0732 465.345 61.1438 465.229 61.1919C465.113 61.2401 464.988 61.2648 464.862 61.2648Z" fill="white"/>
<path opacity="0.1" d="M390.162 125.495L380.449 167.596H403.113L385.306 163.547L390.162 125.495Z" fill="black"/>
<path d="M507.172 195.043L506.956 194.849L512.273 188.948C512.677 188.499 512.989 187.976 513.191 187.407C513.392 186.838 513.48 186.234 513.449 185.631C513.417 185.028 513.268 184.438 513.008 183.892C512.748 183.347 512.384 182.859 511.936 182.455L499.438 171.188C498.989 170.783 498.466 170.472 497.897 170.27C497.328 170.068 496.725 169.98 496.122 170.012C495.519 170.043 494.929 170.193 494.384 170.452C493.839 170.712 493.351 171.076 492.946 171.525L463.779 203.897C463.375 204.345 463.064 204.869 462.862 205.438C462.66 206.007 462.572 206.61 462.604 207.213C462.635 207.816 462.785 208.407 463.044 208.952C463.304 209.497 463.668 209.986 464.117 210.39L476.615 221.657C477.063 222.061 477.587 222.373 478.155 222.575C478.724 222.777 479.327 222.864 479.93 222.833C480.533 222.802 481.124 222.652 481.668 222.392C482.213 222.133 482.702 221.768 483.106 221.32L503.172 199.049L503.387 199.243L507.172 195.043Z" fill="#3F3D56"/>
<path d="M497.367 189.235C499.003 189.235 500.329 187.908 500.329 186.272C500.329 184.636 499.003 183.309 497.367 183.309C495.731 183.309 494.405 184.636 494.405 186.272C494.405 187.908 495.731 189.235 497.367 189.235Z" fill="#6C63FF"/>
<path d="M476.828 184.486C476.828 184.486 511.891 192.975 503.812 205.078C495.734 217.181 463.839 195.059 463.839 195.059L476.828 184.486Z" fill="#FE6077"/>
<path d="M485.282 108.896H494.539C494.539 108.896 504.825 120.214 502.768 130.503C500.71 140.791 494.539 189.148 494.539 189.148C494.539 189.148 463.681 217.957 448.253 202.524C432.824 187.091 444.138 172.686 444.138 172.686C444.138 172.686 464.71 189.148 476.024 167.542L485.282 108.896Z" fill="#320A46"/>
<path d="M476.082 179.044L483.166 109.03C483.166 109.03 498.026 64.8305 483.52 63.7472C469.014 62.6639 467.996 105.631 467.996 105.631L442.731 182.243C442.731 182.243 456.596 195.827 476.082 179.044Z" fill="#FE6077"/>
<path d="M638 447.139C638 419.249 660.61 353.066 688.5 353.066C716.39 353.066 739 419.249 739 447.139C738.996 460.53 733.674 473.371 724.204 482.839C714.734 492.306 701.891 497.625 688.5 497.625C675.109 497.625 662.266 492.306 652.796 482.839C643.326 473.371 638.004 460.53 638 447.139Z" fill="#FF5000"/>
<path d="M688.5 570C688.39 570 688.284 569.957 688.206 569.879C688.128 569.801 688.085 569.695 688.085 569.585V395.478C688.085 395.368 688.128 395.262 688.206 395.184C688.284 395.106 688.39 395.062 688.5 395.062C688.61 395.062 688.716 395.106 688.794 395.184C688.871 395.262 688.915 395.368 688.915 395.478V569.585C688.915 569.695 688.871 569.801 688.794 569.879C688.716 569.957 688.61 570 688.5 570Z" fill="#3F3D56"/>
<path d="M688.5 429.09C688.446 429.09 688.391 429.079 688.341 429.058C688.291 429.037 688.245 429.007 688.206 428.968L668.219 408.98C668.18 408.942 668.149 408.896 668.127 408.846C668.106 408.795 668.095 408.741 668.095 408.686C668.095 408.631 668.105 408.577 668.126 408.526C668.147 408.476 668.178 408.43 668.217 408.391C668.255 408.352 668.301 408.322 668.352 408.301C668.403 408.28 668.457 408.269 668.512 408.27C668.566 408.27 668.621 408.281 668.671 408.302C668.722 408.323 668.767 408.354 668.806 408.393L688.794 428.381C688.852 428.439 688.891 428.513 688.907 428.594C688.923 428.674 688.915 428.758 688.884 428.833C688.852 428.909 688.799 428.974 688.731 429.02C688.662 429.065 688.582 429.09 688.5 429.09V429.09Z" fill="#3F3D56"/>
<path d="M688.5 463.692C688.418 463.692 688.338 463.668 688.269 463.622C688.201 463.577 688.148 463.512 688.116 463.436C688.085 463.36 688.077 463.277 688.093 463.196C688.109 463.116 688.148 463.042 688.206 462.984L721.68 429.51C721.718 429.471 721.764 429.44 721.814 429.419C721.865 429.398 721.919 429.387 721.974 429.387C722.028 429.387 722.083 429.397 722.133 429.418C722.184 429.439 722.23 429.47 722.269 429.508C722.307 429.547 722.338 429.593 722.359 429.644C722.38 429.694 722.39 429.748 722.39 429.803C722.39 429.858 722.379 429.912 722.358 429.963C722.337 430.013 722.306 430.059 722.267 430.097L688.794 463.571C688.755 463.609 688.709 463.64 688.659 463.661C688.609 463.682 688.554 463.693 688.5 463.692Z" fill="#3F3D56"/>
</svg>
